STARTFONT 2.1
FONT -Fondu-Geneva-Medium-R-Normal--18-170-75-75-P-105-MacRoman-1
SIZE 17 75 75
FONTBOUNDINGBOX 16 22 0 -4
COMMENT Created by Fondu from a mac NFNT/FONT resource
STARTPROPERTIES 17
FOUNDRY "Fondu"
FAMILY_NAME "Geneva"
WEIGHT_NAME "Medium"
SLANT "R"
SETWIDTH_NAME "Normal"
ADD_STYLE_NAME ""
PIXEL_SIZE 18
POINT_SIZE 170
RESOLUTION_X 75
RESOLUTION_Y 75
SPACING "P"
AVERAGE_WIDTH 105
CHARSET_REGISTRY "MacRoman"
CHARSET_ENCODING "1"
FONT_ASCENT 18
FONT_DESCENT 4
FACE_NAME "Geneva"
ENDPROPERTIES
CHARS 228
STARTCHAR eth
ENCODING 2
SWIDTH 500 0
DWIDTH 0 0
BBX 0 0 0 -4
BITMAP
ENDCHAR
STARTCHAR Lslash
ENCODING 3
SWIDTH 500 0
DWIDTH 0 0
BBX 0 0 0 -4
BITMAP
ENDCHAR
STARTCHAR lslash
ENCODING 4
SWIDTH 500 0
DWIDTH 0 0
BBX 0 0 0 -4
BITMAP
ENDCHAR
STARTCHAR Scaron
ENCODING 5
SWIDTH 500 0
DWIDTH 0 0
BBX 0 0 0 -4
BITMAP
ENDCHAR
STARTCHAR space
ENCODING 32
SWIDTH 333 0
DWIDTH 6 0
BBX 0 0 6 -4
BITMAP
ENDCHAR
STARTCHAR exclam
ENCODING 33
SWIDTH 303 0
DWIDTH 6 0
BBX 2 13 2 0
BITMAP
C0
C0
C0
C0
C0
C0
C0
C0
C0
00
00
C0
C0
ENDCHAR
STARTCHAR quotedbl
ENCODING 34
SWIDTH 500 0
DWIDTH 8 0
BBX 5 4 2 9
BITMAP
D8
D8
D8
D8
ENDCHAR
STARTCHAR numbersign
ENCODING 35
SWIDTH 667 0
DWIDTH 14 0
BBX 11 10 1 3
BITMAP
0CC0
0CC0
7FE0
1980
1980
3300
3300
FFC0
6600
6600
ENDCHAR
STARTCHAR dollar
ENCODING 36
SWIDTH 667 0
DWIDTH 12 0
BBX 10 15 1 -1
BITMAP
0C00
3F00
6D80
CCC0
CC00
CC00
6C00
3F00
0D80
0CC0
0CC0
CCC0
6D80
3F00
0C00
ENDCHAR
STARTCHAR percent
ENCODING 37
SWIDTH 905 0
DWIDTH 14 0
BBX 10 13 2 0
BITMAP
70C0
D8C0
D980
DB00
7300
0600
0C00
1800
3380
36C0
66C0
C6C0
C380
ENDCHAR
STARTCHAR ampersand
ENCODING 38
SWIDTH 727 0
DWIDTH 16 0
BBX 12 13 1 0
BITMAP
1E00
3300
3300
3300
3600
1C00
3C30
6630
C360
C1C0
C0C0
61F0
3F30
ENDCHAR
STARTCHAR quotesingle
ENCODING 39
SWIDTH 303 0
DWIDTH 3 0
BBX 2 4 1 9
BITMAP
C0
C0
C0
C0
ENDCHAR
STARTCHAR parenleft
ENCODING 40
SWIDTH 447 0
DWIDTH 7 0
BBX 5 17 1 -3
BITMAP
08
18
30
60
60
C0
C0
C0
C0
C0
C0
C0
60
60
30
18
08
ENDCHAR
STARTCHAR parenright
ENCODING 41
SWIDTH 447 0
DWIDTH 7 0
BBX 5 17 1 -3
BITMAP
80
C0
60
30
30
18
18
18
18
18
18
18
30
30
60
C0
80
ENDCHAR
STARTCHAR asterisk
ENCODING 42
SWIDTH 508 0
DWIDTH 14 0
BBX 9 7 2 6
BITMAP
0800
0800
C980
7F00
1C00
3600
6300
ENDCHAR
STARTCHAR plus
ENCODING 43
SWIDTH 667 0
DWIDTH 12 0
BBX 9 9 1 2
BITMAP
0800
0800
0800
0800
FF80
0800
0800
0800
0800
ENDCHAR
STARTCHAR comma
ENCODING 44
SWIDTH 303 0
DWIDTH 6 0
BBX 2 4 2 -2
BITMAP
C0
C0
40
80
ENDCHAR
STARTCHAR hyphen
ENCODING 45
SWIDTH 379 0
DWIDTH 10 0
BBX 8 2 1 5
BITMAP
FF
FF
ENDCHAR
STARTCHAR period
ENCODING 46
SWIDTH 303 0
DWIDTH 6 0
BBX 2 2 2 0
BITMAP
C0
C0
ENDCHAR
STARTCHAR slash
ENCODING 47
SWIDTH 538 0
DWIDTH 10 0
BBX 8 14 1 -1
BITMAP
03
03
06
06
0C
0C
18
18
30
30
60
60
C0
C0
ENDCHAR
STARTCHAR zero
ENCODING 48
SWIDTH 667 0
DWIDTH 12 0
BBX 10 13 1 0
BITMAP
1E00
3F00
6180
6180
C0C0
C0C0
C0C0
C0C0
C0C0
6180
6180
3F00
1E00
ENDCHAR
STARTCHAR one
ENCODING 49
SWIDTH 667 0
DWIDTH 12 0
BBX 5 13 3 0
BITMAP
38
F8
D8
18
18
18
18
18
18
18
18
18
18
ENDCHAR
STARTCHAR two
ENCODING 50
SWIDTH 667 0
DWIDTH 12 0
BBX 10 13 1 0
BITMAP
3F00
7F80
E1C0
C0C0
00C0
0180
0700
1E00
3800
6000
C000
FFC0
FFC0
ENDCHAR
STARTCHAR three
ENCODING 51
SWIDTH 667 0
DWIDTH 12 0
BBX 10 13 1 0
BITMAP
3F00
7F80
E1C0
C0C0
0180
0700
0700
0180
00C0
C0C0
E1C0
7F80
3F00
ENDCHAR
STARTCHAR four
ENCODING 52
SWIDTH 667 0
DWIDTH 12 0
BBX 10 13 1 0
BITMAP
0380
0780
0D80
1980
3180
6180
C180
FFC0
FFC0
0180
0180
0180
0180
ENDCHAR
STARTCHAR five
ENCODING 53
SWIDTH 667 0
DWIDTH 12 0
BBX 10 13 1 0
BITMAP
7FC0
7FC0
6000
6000
6000
7F00
7F80
01C0
00C0
C0C0
E1C0
7F80
3F00
ENDCHAR
STARTCHAR six
ENCODING 54
SWIDTH 667 0
DWIDTH 12 0
BBX 10 13 1 0
BITMAP
1F00
3F80
7180
E000
C000
DF00
FF80
E1C0
C0C0
C0C0
E1C0
7F80
3F00
ENDCHAR
STARTCHAR seven
ENCODING 55
SWIDTH 667 0
DWIDTH 12 0
BBX 10 13 1 0
BITMAP
FFC0
FFC0
00C0
0180
0180
0300
0300
0600
0600
0C00
0C00
1800
1800
ENDCHAR
STARTCHAR eight
ENCODING 56
SWIDTH 667 0
DWIDTH 12 0
BBX 10 13 1 0
BITMAP
3F00
7F80
E1C0
C0C0
6180
3F00
7F80
E1C0
C0C0
C0C0
E1C0
7F80
3F00
ENDCHAR
STARTCHAR nine
ENCODING 57
SWIDTH 667 0
DWIDTH 12 0
BBX 10 13 1 0
BITMAP
3F00
7F80
E1C0
C0C0
C0C0
E1C0
7FC0
3EC0
00C0
01C0
6380
7F00
3E00
ENDCHAR
STARTCHAR colon
ENCODING 58
SWIDTH 303 0
DWIDTH 6 0
BBX 2 10 2 0
BITMAP
C0
C0
00
00
00
00
00
00
C0
C0
ENDCHAR
STARTCHAR semicolon
ENCODING 59
SWIDTH 303 0
DWIDTH 6 0
BBX 2 12 2 -2
BITMAP
C0
C0
00
00
00
00
00
00
C0
C0
40
80
ENDCHAR
STARTCHAR less
ENCODING 60
SWIDTH 667 0
DWIDTH 10 0
BBX 8 9 1 2
BITMAP
01
07
1C
70
C0
70
1C
07
01
ENDCHAR
STARTCHAR equal
ENCODING 61
SWIDTH 667 0
DWIDTH 10 0
BBX 8 3 1 5
BITMAP
FF
00
FF
ENDCHAR
STARTCHAR greater
ENCODING 62
SWIDTH 667 0
DWIDTH 10 0
BBX 8 9 1 2
BITMAP
80
E0
38
0E
03
0E
38
E0
80
ENDCHAR
STARTCHAR question
ENCODING 63
SWIDTH 568 0
DWIDTH 12 0
BBX 9 13 2 0
BITMAP
3E00
FF00
C380
0180
0300
0600
0C00
1800
1800
0000
0000
1800
1800
ENDCHAR
STARTCHAR at
ENCODING 64
SWIDTH 871 0
DWIDTH 16 0
BBX 13 13 1 0
BITMAP
0F80
38E0
6030
67B0
CCD8
D8D8
D8D8
D8D8
D9D8
6F70
6000
3800
0FC0
ENDCHAR
STARTCHAR A
ENCODING 65
SWIDTH 727 0
DWIDTH 14 0
BBX 12 13 1 0
BITMAP
0600
0600
0F00
0F00
1980
1980
30C0
30C0
7FE0
7FE0
6060
C030
C030
ENDCHAR
STARTCHAR B
ENCODING 66
SWIDTH 636 0
DWIDTH 12 0
BBX 10 13 1 0
BITMAP
FE00
FF00
C380
C180
C380
FF00
FF80
C1C0
C0C0
C0C0
C1C0
FF80
FF00
ENDCHAR
STARTCHAR C
ENCODING 67
SWIDTH 651 0
DWIDTH 12 0
BBX 10 13 1 0
BITMAP
0F00
3FC0
70C0
6000
C000
C000
C000
C000
C000
6000
70C0
3FC0
0F00
ENDCHAR
STARTCHAR D
ENCODING 68
SWIDTH 701 0
DWIDTH 12 0
BBX 10 13 1 0
BITMAP
FC00
FF00
C380
C180
C0C0
C0C0
C0C0
C0C0
C0C0
C180
C380
FF00
FC00
ENDCHAR
STARTCHAR E
ENCODING 69
SWIDTH 576 0
DWIDTH 10 0
BBX 8 13 1 0
BITMAP
FF
FF
C0
C0
C0
FE
FE
C0
C0
C0
C0
FF
FF
ENDCHAR
STARTCHAR F
ENCODING 70
SWIDTH 553 0
DWIDTH 10 0
BBX 8 13 1 0
BITMAP
FF
FF
C0
C0
C0
FE
FE
C0
C0
C0
C0
C0
C0
ENDCHAR
STARTCHAR G
ENCODING 71
SWIDTH 674 0
DWIDTH 12 0
BBX 10 13 1 0
BITMAP
0F00
3FC0
70C0
6000
C000
C000
C3C0
C3C0
C0C0
60C0
70C0
3FC0
0F80
ENDCHAR
STARTCHAR H
ENCODING 72
SWIDTH 689 0
DWIDTH 12 0
BBX 10 13 1 0
BITMAP
C0C0
C0C0
C0C0
C0C0
C0C0
C0C0
FFC0
FFC0
C0C0
C0C0
C0C0
C0C0
C0C0
ENDCHAR
STARTCHAR I
ENCODING 73
SWIDTH 242 0
DWIDTH 6 0
BBX 2 13 2 0
BITMAP
C0
C0
C0
C0
C0
C0
C0
C0
C0
C0
C0
C0
C0
ENDCHAR
STARTCHAR J
ENCODING 74
SWIDTH 492 0
DWIDTH 10 0
BBX 8 13 1 0
BITMAP
03
03
03
03
03
03
03
03
03
03
C7
FE
7C
ENDCHAR
STARTCHAR K
ENCODING 75
SWIDTH 663 0
DWIDTH 12 0
BBX 10 13 1 0
BITMAP
C180
C300
C600
CC00
D800
F000
F000
F800
DC00
CE00
C700
C380
C1C0
ENDCHAR
STARTCHAR L
ENCODING 76
SWIDTH 583 0
DWIDTH 10 0
BBX 8 13 1 0
BITMAP
C0
C0
C0
C0
C0
C0
C0
C0
C0
C0
C0
FF
FF
ENDCHAR
STARTCHAR M
ENCODING 77
SWIDTH 788 0
DWIDTH 14 0
BBX 12 13 1 0
BITMAP
C030
C030
E070
E070
F0F0
F0B0
D9B0
D930
CF30
CE30
C630
C630
C030
ENDCHAR
STARTCHAR N
ENCODING 78
SWIDTH 708 0
DWIDTH 12 0
BBX 10 13 1 0
BITMAP
C0C0
E0C0
E0C0
F0C0
D8C0
DCC0
CCC0
C6C0
C3C0
C3C0
C1C0
C0C0
C0C0
ENDCHAR
STARTCHAR O
ENCODING 79
SWIDTH 735 0
DWIDTH 12 0
BBX 10 13 1 0
BITMAP
1E00
3F00
6180
6180
C0C0
C0C0
C0C0
C0C0
C0C0
6180
6180
3F00
1E00
ENDCHAR
STARTCHAR P
ENCODING 80
SWIDTH 583 0
DWIDTH 12 0
BBX 10 13 1 0
BITMAP
FF00
FF80
C1C0
C0C0
C0C0
C0C0
C1C0
FF80
FF00
C000
C000
C000
C000
ENDCHAR
STARTCHAR Q
ENCODING 81
SWIDTH 735 0
DWIDTH 12 0
BBX 10 16 1 -3
BITMAP
1E00
3F00
6180
6180
C0C0
C0C0
C0C0
C0C0
C0C0
6180
6180
3F00
1E00
0600
03C0
01C0
ENDCHAR
STARTCHAR R
ENCODING 82
SWIDTH 606 0
DWIDTH 12 0
BBX 10 13 1 0
BITMAP
FF00
FF80
C1C0
C0C0
C0C0
C1C0
FF80
FF00
C300
C180
C180
C0C0
C0C0
ENDCHAR
STARTCHAR S
ENCODING 83
SWIDTH 606 0
DWIDTH 12 0
BBX 10 13 1 0
BITMAP
3F00
7F80
E1C0
C0C0
E000
7800
3F00
0780
01C0
C0C0
E1C0
7F80
3F00
ENDCHAR
STARTCHAR T
ENCODING 84
SWIDTH 640 0
DWIDTH 12 0
BBX 10 13 1 0
BITMAP
FFC0
FFC0
0C00
0C00
0C00
0C00
0C00
0C00
0C00
0C00
0C00
0C00
0C00
ENDCHAR
STARTCHAR U
ENCODING 85
SWIDTH 667 0
DWIDTH 12 0
BBX 10 13 1 0
BITMAP
C0C0
C0C0
C0C0
C0C0
C0C0
C0C0
C0C0
C0C0
C0C0
C0C0
E1C0
7F80
3F00
ENDCHAR
STARTCHAR V
ENCODING 86
SWIDTH 727 0
DWIDTH 14 0
BBX 12 13 1 0
BITMAP
C030
C030
C030
6060
6060
30C0
30C0
1980
1980
0F00
0F00
0600
0600
ENDCHAR
STARTCHAR W
ENCODING 87
SWIDTH 947 0
DWIDTH 16 0
BBX 16 13 0 0
BITMAP
C003
C003
6186
6186
6186
33CC
33CC
32CC
1A6C
1E78
1E78
0C30
0C30
ENDCHAR
STARTCHAR X
ENCODING 88
SWIDTH 610 0
DWIDTH 12 0
BBX 10 13 1 0
BITMAP
C0C0
C0C0
6180
3300
3300
1E00
0C00
1E00
3300
3300
6180
C0C0
C0C0
ENDCHAR
STARTCHAR Y
ENCODING 89
SWIDTH 610 0
DWIDTH 12 0
BBX 10 13 1 0
BITMAP
C0C0
C0C0
6180
6180
3300
3300
1E00
1E00
0C00
0C00
0C00
0C00
0C00
ENDCHAR
STARTCHAR Z
ENCODING 90
SWIDTH 576 0
DWIDTH 10 0
BBX 8 13 1 0
BITMAP
FF
FF
03
06
06
0C
18
30
30
60
C0
FF
FF
ENDCHAR
STARTCHAR bracketleft
ENCODING 91
SWIDTH 447 0
DWIDTH 8 0
BBX 4 17 2 -3
BITMAP
F0
F0
C0
C0
C0
C0
C0
C0
C0
C0
C0
C0
C0
C0
C0
F0
F0
ENDCHAR
STARTCHAR backslash
ENCODING 92
SWIDTH 538 0
DWIDTH 10 0
BBX 8 14 1 -1
BITMAP
C0
C0
60
60
30
30
18
18
0C
0C
06
06
03
03
ENDCHAR
STARTCHAR bracketright
ENCODING 93
SWIDTH 447 0
DWIDTH 8 0
BBX 4 17 2 -3
BITMAP
F0
F0
30
30
30
30
30
30
30
30
30
30
30
30
30
F0
F0
ENDCHAR
STARTCHAR asciicircum
ENCODING 94
SWIDTH 667 0
DWIDTH 8 0
BBX 6 6 1 5
BITMAP
30
30
78
48
CC
84
ENDCHAR
STARTCHAR underscore
ENCODING 95
SWIDTH 667 0
DWIDTH 12 0
BBX 12 1 0 -1
BITMAP
FFF0
ENDCHAR
STARTCHAR grave
ENCODING 96
SWIDTH 591 0
DWIDTH 6 0
BBX 4 3 1 11
BITMAP
C0
60
30
ENDCHAR
STARTCHAR a
ENCODING 97
SWIDTH 553 0
DWIDTH 10 0
BBX 8 10 1 0
BITMAP
3E
7F
C3
03
1F
7F
E3
C7
FF
7B
ENDCHAR
STARTCHAR b
ENCODING 98
SWIDTH 610 0
DWIDTH 10 0
BBX 8 13 1 0
BITMAP
C0
C0
C0
DC
FE
E7
C3
C3
C3
C3
E7
FE
DC
ENDCHAR
STARTCHAR c
ENCODING 99
SWIDTH 545 0
DWIDTH 10 0
BBX 8 10 1 0
BITMAP
3C
7E
E3
C0
C0
C0
C0
E3
7E
3C
ENDCHAR
STARTCHAR d
ENCODING 100
SWIDTH 602 0
DWIDTH 10 0
BBX 8 13 1 0
BITMAP
03
03
03
3B
7F
E7
C3
C3
C3
C3
E7
7F
3B
ENDCHAR
STARTCHAR e
ENCODING 101
SWIDTH 576 0
DWIDTH 10 0
BBX 8 10 1 0
BITMAP
3C
7E
E7
C3
FF
FF
C0
E3
7E
3C
ENDCHAR
STARTCHAR f
ENCODING 102
SWIDTH 390 0
DWIDTH 8 0
BBX 6 13 1 0
BITMAP
3C
7C
60
FC
FC
60
60
60
60
60
60
60
60
ENDCHAR
STARTCHAR g
ENCODING 103
SWIDTH 610 0
DWIDTH 10 0
BBX 8 14 1 -4
BITMAP
3B
7F
E7
C3
C3
C3
C3
E7
7F
3B
03
C7
FE
3C
ENDCHAR
STARTCHAR h
ENCODING 104
SWIDTH 583 0
DWIDTH 10 0
BBX 8 13 1 0
BITMAP
C0
C0
C0
DE
FF
E3
C3
C3
C3
C3
C3
C3
C3
ENDCHAR
STARTCHAR i
ENCODING 105
SWIDTH 235 0
DWIDTH 6 0
BBX 2 13 2 0
BITMAP
C0
C0
00
C0
C0
C0
C0
C0
C0
C0
C0
C0
C0
ENDCHAR
STARTCHAR j
ENCODING 106
SWIDTH 276 0
DWIDTH 8 0
BBX 5 17 1 -4
BITMAP
18
18
00
18
18
18
18
18
18
18
18
18
18
18
38
F0
E0
ENDCHAR
STARTCHAR k
ENCODING 107
SWIDTH 538 0
DWIDTH 10 0
BBX 8 13 1 0
BITMAP
C0
C0
C0
C6
CC
D8
F0
E0
F0
D8
CC
C6
C3
ENDCHAR
STARTCHAR l
ENCODING 108
SWIDTH 235 0
DWIDTH 6 0
BBX 2 13 2 0
BITMAP
C0
C0
C0
C0
C0
C0
C0
C0
C0
C0
C0
C0
C0
ENDCHAR
STARTCHAR m
ENCODING 109
SWIDTH 894 0
DWIDTH 16 0
BBX 14 10 1 0
BITMAP
DE78
FFFC
E38C
C30C
C30C
C30C
C30C
C30C
C30C
C30C
ENDCHAR
STARTCHAR n
ENCODING 110
SWIDTH 583 0
DWIDTH 10 0
BBX 8 10 1 0
BITMAP
DE
FF
E3
C3
C3
C3
C3
C3
C3
C3
ENDCHAR
STARTCHAR o
ENCODING 111
SWIDTH 606 0
DWIDTH 10 0
BBX 8 10 1 0
BITMAP
3C
7E
E7
C3
C3
C3
C3
E7
7E
3C
ENDCHAR
STARTCHAR p
ENCODING 112
SWIDTH 602 0
DWIDTH 10 0
BBX 8 14 1 -4
BITMAP
DC
FE
E7
C3
C3
C3
C3
E7
FE
DC
C0
C0
C0
C0
ENDCHAR
STARTCHAR q
ENCODING 113
SWIDTH 602 0
DWIDTH 10 0
BBX 8 14 1 -4
BITMAP
3B
7F
E7
C3
C3
C3
C3
E7
7F
3B
03
03
03
03
ENDCHAR
STARTCHAR r
ENCODING 114
SWIDTH 386 0
DWIDTH 10 0
BBX 7 10 2 0
BITMAP
CE
DE
F0
E0
C0
C0
C0
C0
C0
C0
ENDCHAR
STARTCHAR s
ENCODING 115
SWIDTH 509 0
DWIDTH 10 0
BBX 8 10 1 0
BITMAP
3C
7F
C3
F0
7C
1E
07
C3
FE
3C
ENDCHAR
STARTCHAR t
ENCODING 116
SWIDTH 443 0
DWIDTH 8 0
BBX 6 12 1 0
BITMAP
30
30
FC
FC
30
30
30
30
30
30
3C
1C
ENDCHAR
STARTCHAR u
ENCODING 117
SWIDTH 583 0
DWIDTH 10 0
BBX 8 10 1 0
BITMAP
C3
C3
C3
C3
C3
C3
C3
C7
FF
7B
ENDCHAR
STARTCHAR v
ENCODING 118
SWIDTH 564 0
DWIDTH 10 0
BBX 9 10 0 0
BITMAP
C180
C180
6300
6300
3600
3600
1C00
1C00
0800
0800
ENDCHAR
STARTCHAR w
ENCODING 119
SWIDTH 780 0
DWIDTH 16 0
BBX 15 10 0 0
BITMAP
C106
C106
638C
638C
36D8
36D8
1C70
1C70
0820
0820
ENDCHAR
STARTCHAR x
ENCODING 120
SWIDTH 530 0
DWIDTH 10 0
BBX 8 10 1 0
BITMAP
C3
C3
66
3C
18
18
3C
66
C3
C3
ENDCHAR
STARTCHAR y
ENCODING 121
SWIDTH 572 0
DWIDTH 12 0
BBX 10 14 1 -4
BITMAP
C0C0
C0C0
60C0
6180
3180
3300
1B00
1E00
0E00
0C00
1C00
3800
F000
C000
ENDCHAR
STARTCHAR z
ENCODING 122
SWIDTH 553 0
DWIDTH 10 0
BBX 8 10 1 0
BITMAP
FF
FF
03
06
0C
18
30
60
FF
FF
ENDCHAR
STARTCHAR braceleft
ENCODING 123
SWIDTH 451 0
DWIDTH 8 0
BBX 5 17 2 -3
BITMAP
38
78
60
60
60
60
60
60
C0
60
60
60
60
60
60
78
38
ENDCHAR
STARTCHAR bar
ENCODING 124
SWIDTH 246 0
DWIDTH 4 0
BBX 2 15 1 -1
BITMAP
C0
C0
C0
C0
C0
C0
C0
C0
C0
C0
C0
C0
C0
C0
C0
ENDCHAR
STARTCHAR braceright
ENCODING 125
SWIDTH 451 0
DWIDTH 8 0
BBX 5 17 1 -3
BITMAP
E0
F0
30
30
30
30
30
30
18
30
30
30
30
30
30
F0
E0
ENDCHAR
STARTCHAR asciitilde
ENCODING 126
SWIDTH 667 0
DWIDTH 12 0
BBX 9 3 1 7
BITMAP
7180
FF80
C700
ENDCHAR
STARTCHAR char007f
ENCODING 127
SWIDTH 500 0
DWIDTH 0 0
BBX 0 0 0 -4
BITMAP
ENDCHAR
STARTCHAR Adieresis
ENCODING 128
SWIDTH 727 0
DWIDTH 14 0
BBX 12 16 1 0
BITMAP
1980
1980
0000
0600
0600
0F00
0F00
1980
1980
30C0
30C0
7FE0
7FE0
6060
C030
C030
ENDCHAR
STARTCHAR Aring
ENCODING 129
SWIDTH 727 0
DWIDTH 14 0
BBX 12 17 1 0
BITMAP
0600
0900
0900
0600
0600
0600
0F00
0F00
1980
1980
30C0
30C0
7FE0
7FE0
6060
C030
C030
ENDCHAR
STARTCHAR Ccedilla
ENCODING 130
SWIDTH 651 0
DWIDTH 12 0
BBX 10 17 1 -4
BITMAP
0F00
3FC0
70C0
6000
C000
C000
C000
C000
C000
6000
70C0
3FC0
0F00
0400
0E00
0300
0E00
ENDCHAR
STARTCHAR Eacute
ENCODING 131
SWIDTH 576 0
DWIDTH 10 0
BBX 8 17 1 0
BITMAP
06
0C
18
00
FF
FF
C0
C0
C0
FE
FE
C0
C0
C0
C0
FF
FF
ENDCHAR
STARTCHAR Ntilde
ENCODING 132
SWIDTH 708 0
DWIDTH 12 0
BBX 10 16 1 0
BITMAP
3980
6700
0000
C0C0
E0C0
E0C0
F0C0
D8C0
DCC0
CCC0
C6C0
C3C0
C3C0
C1C0
C0C0
C0C0
ENDCHAR
STARTCHAR Odieresis
ENCODING 133
SWIDTH 735 0
DWIDTH 12 0
BBX 10 16 1 0
BITMAP
3300
3300
0000
1E00
3F00
6180
6180
C0C0
C0C0
C0C0
C0C0
C0C0
6180
6180
3F00
1E00
ENDCHAR
STARTCHAR Udieresis
ENCODING 134
SWIDTH 667 0
DWIDTH 12 0
BBX 10 16 1 0
BITMAP
3300
3300
0000
C0C0
C0C0
C0C0
C0C0
C0C0
C0C0
C0C0
C0C0
C0C0
C0C0
E1C0
7F80
3F00
ENDCHAR
STARTCHAR aacute
ENCODING 135
SWIDTH 553 0
DWIDTH 10 0
BBX 8 14 1 0
BITMAP
0C
18
30
00
3E
7F
C3
03
1F
7F
E3
C7
FF
7B
ENDCHAR
STARTCHAR agrave
ENCODING 136
SWIDTH 553 0
DWIDTH 10 0
BBX 8 14 1 0
BITMAP
30
18
0C
00
3E
7F
C3
03
1F
7F
E3
C7
FF
7B
ENDCHAR
STARTCHAR acircumflex
ENCODING 137
SWIDTH 553 0
DWIDTH 10 0
BBX 8 14 1 0
BITMAP
08
1C
36
00
3E
7F
C3
03
1F
7F
E3
C7
FF
7B
ENDCHAR
STARTCHAR adieresis
ENCODING 138
SWIDTH 553 0
DWIDTH 10 0
BBX 8 13 1 0
BITMAP
36
36
00
3E
7F
C3
03
1F
7F
E3
C7
FF
7B
ENDCHAR
STARTCHAR atilde
ENCODING 139
SWIDTH 553 0
DWIDTH 10 0
BBX 8 13 1 0
BITMAP
3B
6E
00
3E
7F
C3
03
1F
7F
E3
C7
FF
7B
ENDCHAR
STARTCHAR aring
ENCODING 140
SWIDTH 553 0
DWIDTH 10 0
BBX 8 14 1 0
BITMAP
08
14
08
00
3E
7F
C3
03
1F
7F
E3
C7
FF
7B
ENDCHAR
STARTCHAR ccedilla
ENCODING 141
SWIDTH 545 0
DWIDTH 10 0
BBX 8 13 1 -3
BITMAP
3C
7E
E3
C0
C0
C0
C0
E3
7E
3C
18
0C
18
ENDCHAR
STARTCHAR eacute
ENCODING 142
SWIDTH 576 0
DWIDTH 10 0
BBX 8 14 1 0
BITMAP
0C
18
30
00
3C
7E
E7
C3
FF
FF
C0
E3
7E
3C
ENDCHAR
STARTCHAR egrave
ENCODING 143
SWIDTH 576 0
DWIDTH 10 0
BBX 8 14 1 0
BITMAP
30
18
0C
00
3C
7E
E7
C3
FF
FF
C0
E3
7E
3C
ENDCHAR
STARTCHAR ecircumflex
ENCODING 144
SWIDTH 576 0
DWIDTH 10 0
BBX 8 14 1 0
BITMAP
18
3C
66
00
3C
7E
E7
C3
FF
FF
C0
E3
7E
3C
ENDCHAR
STARTCHAR edieresis
ENCODING 145
SWIDTH 576 0
DWIDTH 10 0
BBX 8 13 1 0
BITMAP
66
66
00
3C
7E
E7
C3
FF
FF
C0
E3
7E
3C
ENDCHAR
STARTCHAR iacute
ENCODING 146
SWIDTH 235 0
DWIDTH 6 0
BBX 4 14 1 0
BITMAP
30
60
C0
00
60
60
60
60
60
60
60
60
60
60
ENDCHAR
STARTCHAR igrave
ENCODING 147
SWIDTH 235 0
DWIDTH 6 0
BBX 4 14 1 0
BITMAP
C0
60
30
00
60
60
60
60
60
60
60
60
60
60
ENDCHAR
STARTCHAR icircumflex
ENCODING 148
SWIDTH 235 0
DWIDTH 6 0
BBX 6 14 0 0
BITMAP
30
78
CC
00
30
30
30
30
30
30
30
30
30
30
ENDCHAR
STARTCHAR idieresis
ENCODING 149
SWIDTH 235 0
DWIDTH 7 0
BBX 6 13 0 0
BITMAP
CC
CC
00
30
30
30
30
30
30
30
30
30
30
ENDCHAR
STARTCHAR ntilde
ENCODING 150
SWIDTH 583 0
DWIDTH 10 0
BBX 8 13 1 0
BITMAP
73
CE
00
DE
FF
E3
C3
C3
C3
C3
C3
C3
C3
ENDCHAR
STARTCHAR oacute
ENCODING 151
SWIDTH 606 0
DWIDTH 10 0
BBX 8 14 1 0
BITMAP
0C
18
30
00
3C
7E
E7
C3
C3
C3
C3
E7
7E
3C
ENDCHAR
STARTCHAR ograve
ENCODING 152
SWIDTH 606 0
DWIDTH 10 0
BBX 8 14 1 0
BITMAP
30
18
0C
00
3C
7E
E7
C3
C3
C3
C3
E7
7E
3C
ENDCHAR
STARTCHAR ocircumflex
ENCODING 153
SWIDTH 606 0
DWIDTH 10 0
BBX 8 14 1 0
BITMAP
18
3C
66
00
3C
7E
E7
C3
C3
C3
C3
E7
7E
3C
ENDCHAR
STARTCHAR odieresis
ENCODING 154
SWIDTH 606 0
DWIDTH 10 0
BBX 8 13 1 0
BITMAP
66
66
00
3C
7E
E7
C3
C3
C3
C3
E7
7E
3C
ENDCHAR
STARTCHAR otilde
ENCODING 155
SWIDTH 606 0
DWIDTH 10 0
BBX 8 13 1 0
BITMAP
3B
6E
00
3C
7E
E7
C3
C3
C3
C3
E7
7E
3C
ENDCHAR
STARTCHAR uacute
ENCODING 156
SWIDTH 583 0
DWIDTH 10 0
BBX 8 14 1 0
BITMAP
0C
18
30
00
C3
C3
C3
C3
C3
C3
C3
C7
FF
7B
ENDCHAR
STARTCHAR ugrave
ENCODING 157
SWIDTH 583 0
DWIDTH 10 0
BBX 8 14 1 0
BITMAP
30
18
0C
00
C3
C3
C3
C3
C3
C3
C3
C7
FF
7B
ENDCHAR
STARTCHAR ucircumflex
ENCODING 158
SWIDTH 583 0
DWIDTH 10 0
BBX 8 14 1 0
BITMAP
18
3C
66
00
C3
C3
C3
C3
C3
C3
C3
C7
FF
7B
ENDCHAR
STARTCHAR udieresis
ENCODING 159
SWIDTH 583 0
DWIDTH 10 0
BBX 8 13 1 0
BITMAP
66
66
00
C3
C3
C3
C3
C3
C3
C3
C7
FF
7B
ENDCHAR
STARTCHAR dagger
ENCODING 160
SWIDTH 667 0
DWIDTH 8 0
BBX 6 8 1 5
BITMAP
30
30
FC
FC
30
30
30
30
ENDCHAR
STARTCHAR degree
ENCODING 161
SWIDTH 341 0
DWIDTH 8 0
BBX 5 4 1 9
BITMAP
70
D8
D8
70
ENDCHAR
STARTCHAR cent
ENCODING 162
SWIDTH 667 0
DWIDTH 10 0
BBX 8 14 1 0
BITMAP
0C
0C
3E
6D
6C
CC
CC
CC
CC
6C
6D
3E
0C
0C
ENDCHAR
STARTCHAR sterling
ENCODING 163
SWIDTH 667 0
DWIDTH 12 0
BBX 9 13 1 0
BITMAP
0700
0F00
0C00
1800
1800
7E00
7E00
3000
3000
6000
6000
FF80
FF80
ENDCHAR
STARTCHAR section
ENCODING 164
SWIDTH 667 0
DWIDTH 12 0
BBX 9 15 1 -2
BITMAP
3E00
7F00
E380
C180
E000
7C00
CF00
E380
7980
1F00
0380
C180
E380
7F00
3E00
ENDCHAR
STARTCHAR bullet
ENCODING 165
SWIDTH 667 0
DWIDTH 12 0
BBX 9 9 1 2
BITMAP
1C00
7F00
7F00
FF80
FF80
FF80
7F00
7F00
1C00
ENDCHAR
STARTCHAR paragraph
ENCODING 166
SWIDTH 667 0
DWIDTH 12 0
BBX 10 15 1 -2
BITMAP
7FC0
FD80
FD80
FD80
7D80
3D80
0D80
0D80
0D80
0D80
0D80
0D80
0D80
0D80
0D80
ENDCHAR
STARTCHAR germandbls
ENCODING 167
SWIDTH 591 0
DWIDTH 12 0
BBX 9 12 2 0
BITMAP
3E00
7F00
E300
C600
CC00
CE00
C700
C380
C180
C380
DF00
DE00
ENDCHAR
STARTCHAR registered
ENCODING 168
SWIDTH 879 0
DWIDTH 16 0
BBX 13 12 2 0
BITMAP
0F80
38E0
6F30
68B0
C898
CF18
C918
C898
68B0
6030
38E0
0F80
ENDCHAR
STARTCHAR copyright
ENCODING 169
SWIDTH 879 0
DWIDTH 16 0
BBX 13 12 2 0
BITMAP
0F80
38E0
6730
6CB0
D818
D818
D818
D818
6CB0
6730
38E0
0F80
ENDCHAR
STARTCHAR trademark
ENCODING 170
SWIDTH 758 0
DWIDTH 18 0
BBX 15 6 1 6
BITMAP
FD86
31CE
31FE
31B6
3186
3186
ENDCHAR
STARTCHAR acute
ENCODING 171
SWIDTH 591 0
DWIDTH 8 0
BBX 4 3 2 11
BITMAP
30
60
C0
ENDCHAR
STARTCHAR dieresis
ENCODING 172
SWIDTH 591 0
DWIDTH 8 0
BBX 6 2 1 11
BITMAP
CC
CC
ENDCHAR
STARTCHAR notequal
ENCODING 173
SWIDTH 667 0
DWIDTH 10 0
BBX 8 7 1 3
BITMAP
02
04
FF
18
FF
20
40
ENDCHAR
STARTCHAR AE
ENCODING 174
SWIDTH 992 0
DWIDTH 18 0
BBX 15 13 1 0
BITMAP
03FE
07FE
0780
0D80
0D80
19FC
19FC
3180
3F80
7F80
6180
C1FE
C1FE
ENDCHAR
STARTCHAR Oslash
ENCODING 175
SWIDTH 735 0
DWIDTH 12 0
BBX 10 13 1 0
BITMAP
1E40
3FC0
6180
6380
C2C0
C6C0
CCC0
D8C0
D0C0
7180
6180
FF00
9E00
ENDCHAR
STARTCHAR infinity
ENCODING 176
SWIDTH 667 0
DWIDTH 16 0
BBX 14 5 1 4
BITMAP
7CF8
C78C
C30C
C78C
7CF8
ENDCHAR
STARTCHAR plusminus
ENCODING 177
SWIDTH 667 0
DWIDTH 12 0
BBX 9 11 1 0
BITMAP
0800
0800
0800
0800
FF80
0800
0800
0800
0800
0000
FF80
ENDCHAR
STARTCHAR lessequal
ENCODING 178
SWIDTH 667 0
DWIDTH 10 0
BBX 8 11 1 0
BITMAP
01
07
1C
70
C0
70
1C
07
01
00
FF
ENDCHAR
STARTCHAR greaterequal
ENCODING 179
SWIDTH 667 0
DWIDTH 10 0
BBX 8 11 1 0
BITMAP
80
E0
38
0E
03
0E
38
E0
80
00
FF
ENDCHAR
STARTCHAR yen
ENCODING 180
SWIDTH 667 0
DWIDTH 12 0
BBX 10 13 1 0
BITMAP
C0C0
C0C0
6180
6180
3300
3300
1E00
7F80
0C00
7F80
0C00
0C00
0C00
ENDCHAR
STARTCHAR mu
ENCODING 181
SWIDTH 591 0
DWIDTH 12 0
BBX 10 12 1 -2
BITMAP
18C0
18C0
3180
3180
3180
3180
6300
6300
7700
DD80
C000
C000
ENDCHAR
STARTCHAR partialdiff
ENCODING 182
SWIDTH 651 0
DWIDTH 10 0
BBX 8 13 1 0
BITMAP
38
0C
06
1E
33
63
63
C3
C3
C6
C6
6C
38
ENDCHAR
STARTCHAR summation
ENCODING 183
SWIDTH 606 0
DWIDTH 12 0
BBX 10 16 1 -3
BITMAP
FFC0
FFC0
6000
3000
1800
0C00
0600
0300
0300
0600
0C00
1800
3000
6000
FFC0
FFC0
ENDCHAR
STARTCHAR product
ENCODING 184
SWIDTH 803 0
DWIDTH 14 0
BBX 12 16 1 -3
BITMAP
FFF0
FFF0
30C0
30C0
30C0
30C0
30C0
30C0
30C0
30C0
30C0
30C0
30C0
30C0
30C0
30C0
ENDCHAR
STARTCHAR pi
ENCODING 185
SWIDTH 689 0
DWIDTH 14 0
BBX 11 10 1 0
BITMAP
FFE0
FFE0
3180
3180
3180
3180
3180
3180
3180
30C0
ENDCHAR
STARTCHAR integral
ENCODING 186
SWIDTH 523 0
DWIDTH 10 0
BBX 8 16 1 -3
BITMAP
07
0D
18
18
18
18
18
18
18
18
18
18
18
18
B0
E0
ENDCHAR
STARTCHAR ordfeminine
ENCODING 187
SWIDTH 333 0
DWIDTH 10 0
BBX 6 7 2 6
BITMAP
78
CC
0C
7C
CC
DC
6C
ENDCHAR
STARTCHAR ordmasculine
ENCODING 188
SWIDTH 371 0
DWIDTH 10 0
BBX 6 7 2 6
BITMAP
78
CC
CC
CC
CC
CC
78
ENDCHAR
STARTCHAR Omega
ENCODING 189
SWIDTH 803 0
DWIDTH 16 0
BBX 12 14 2 0
BITMAP
0F00
39C0
6060
6060
C030
C030
C030
C030
C030
6060
6060
30C0
F0F0
F0F0
ENDCHAR
STARTCHAR ae
ENCODING 190
SWIDTH 928 0
DWIDTH 18 0
BBX 14 10 2 0
BITMAP
3EF0
7FF8
C39C
030C
1FFC
7FFC
E300
C78C
FDF8
78F0
ENDCHAR
STARTCHAR oslash
ENCODING 191
SWIDTH 606 0
DWIDTH 10 0
BBX 8 10 1 0
BITMAP
3D
7E
E7
CB
CB
D3
D3
E7
7E
BC
ENDCHAR
STARTCHAR questiondown
ENCODING 192
SWIDTH 568 0
DWIDTH 12 0
BBX 9 13 1 -3
BITMAP
0C00
0C00
0000
0000
0C00
0C00
1800
3000
6000
C000
E180
7F80
3E00
ENDCHAR
STARTCHAR exclamdown
ENCODING 193
SWIDTH 303 0
DWIDTH 6 0
BBX 2 13 2 -3
BITMAP
C0
C0
00
00
C0
C0
C0
C0
C0
C0
C0
C0
C0
ENDCHAR
STARTCHAR logicalnot
ENCODING 194
SWIDTH 667 0
DWIDTH 10 0
BBX 8 4 1 3
BITMAP
FF
01
01
01
ENDCHAR
STARTCHAR radical
ENCODING 195
SWIDTH 898 0
DWIDTH 16 0
BBX 13 16 1 -3
BITMAP
0008
0008
0010
0010
0020
0020
4040
C040
2080
2080
1100
1100
0A00
0A00
0400
0400
ENDCHAR
STARTCHAR florin
ENCODING 196
SWIDTH 667 0
DWIDTH 10 0
BBX 9 16 0 -3
BITMAP
0380
0780
0C00
0C00
3F00
3F00
1800
3000
3000
3000
6000
6000
6000
C000
C000
C000
ENDCHAR
STARTCHAR approxequal
ENCODING 197
SWIDTH 667 0
DWIDTH 10 0
BBX 9 4 1 4
BITMAP
7880
8700
7080
8F00
ENDCHAR
STARTCHAR Delta
ENCODING 198
SWIDTH 758 0
DWIDTH 14 0
BBX 12 12 1 0
BITMAP
0600
0600
0F00
0F00
1980
1980
30C0
30C0
6060
6060
C030
FFF0
ENDCHAR
STARTCHAR guillemotleft
ENCODING 199
SWIDTH 534 0
DWIDTH 14 0
BBX 10 9 2 1
BITMAP
0CC0
1980
3300
6600
CC00
6600
3300
1980
0CC0
ENDCHAR
STARTCHAR guillemotright
ENCODING 200
SWIDTH 534 0
DWIDTH 14 0
BBX 10 9 2 1
BITMAP
CC00
6600
3300
1980
0CC0
1980
3300
6600
CC00
ENDCHAR
STARTCHAR ellipsis
ENCODING 201
SWIDTH 1030 0
DWIDTH 16 0
BBX 12 2 2 0
BITMAP
C630
C630
ENDCHAR
STARTCHAR nbspace
ENCODING 202
SWIDTH 667 0
DWIDTH 12 0
BBX 0 0 0 -4
BITMAP
ENDCHAR
STARTCHAR Agrave
ENCODING 203
SWIDTH 727 0
DWIDTH 14 0
BBX 12 17 1 0
BITMAP
0C00
0600
0300
0000
0600
0600
0F00
0F00
1980
1980
30C0
30C0
7FE0
7FE0
6060
C030
C030
ENDCHAR
STARTCHAR Atilde
ENCODING 204
SWIDTH 727 0
DWIDTH 14 0
BBX 12 16 1 0
BITMAP
1EC0
3780
0000
0600
0600
0F00
0F00
1980
1980
30C0
30C0
7FE0
7FE0
6060
C030
C030
ENDCHAR
STARTCHAR Otilde
ENCODING 205
SWIDTH 735 0
DWIDTH 12 0
BBX 10 16 1 0
BITMAP
3980
6700
0000
1E00
3F00
6180
6180
C0C0
C0C0
C0C0
C0C0
C0C0
6180
6180
3F00
1E00
ENDCHAR
STARTCHAR OE
ENCODING 206
SWIDTH 1091 0
DWIDTH 18 0
BBX 16 13 1 0
BITMAP
1EFF
3FFF
61C0
61C0
C0C0
C0FE
C0FE
C0C0
C0C0
61C0
61C0
3FFF
1EFF
ENDCHAR
STARTCHAR oe
ENCODING 207
SWIDTH 996 0
DWIDTH 16 0
BBX 14 10 1 0
BITMAP
3CF0
7FF8
E79C
C30C
C3FC
C3FC
C300
E78C
7FF8
3CF0
ENDCHAR
STARTCHAR endash
ENCODING 208
SWIDTH 515 0
DWIDTH 10 0
BBX 8 1 1 6
BITMAP
FF
ENDCHAR
STARTCHAR emdash
ENCODING 209
SWIDTH 1030 0
DWIDTH 14 0
BBX 13 1 1 6
BITMAP
FFF8
ENDCHAR
STARTCHAR quotedblleft
ENCODING 210
SWIDTH 492 0
DWIDTH 14 0
BBX 6 4 4 10
BITMAP
44
88
CC
CC
ENDCHAR
STARTCHAR quotedblright
ENCODING 211
SWIDTH 492 0
DWIDTH 14 0
BBX 6 4 4 10
BITMAP
CC
CC
44
88
ENDCHAR
STARTCHAR quoteleft
ENCODING 212
SWIDTH 303 0
DWIDTH 8 0
BBX 2 4 3 10
BITMAP
40
80
C0
C0
ENDCHAR
STARTCHAR quoteright
ENCODING 213
SWIDTH 303 0
DWIDTH 8 0
BBX 2 4 3 10
BITMAP
C0
C0
40
80
ENDCHAR
STARTCHAR divide
ENCODING 214
SWIDTH 667 0
DWIDTH 10 0
BBX 8 7 1 3
BITMAP
18
00
00
FF
00
00
18
ENDCHAR
STARTCHAR lozenge
ENCODING 215
SWIDTH 667 0
DWIDTH 16 0
BBX 12 12 2 1
BITMAP
0600
0F00
1980
30C0
6060
C030
C030
6060
30C0
1980
0F00
0600
ENDCHAR
STARTCHAR ydieresis
ENCODING 216
SWIDTH 572 0
DWIDTH 12 0
BBX 10 17 1 -4
BITMAP
3300
3300
0000
C0C0
C0C0
6180
6180
3300
3300
1E00
1E00
0C00
0C00
1800
3800
F000
E000
ENDCHAR
STARTCHAR Ydieresis
ENCODING 217
SWIDTH 610 0
DWIDTH 12 0
BBX 10 16 1 0
BITMAP
3300
3300
0000
C0C0
C0C0
6180
6180
3300
3300
1E00
1E00
0C00
0C00
0C00
0C00
0C00
ENDCHAR
STARTCHAR fraction
ENCODING 218
SWIDTH 102 0
DWIDTH 10 0
BBX 10 14 0 -1
BITMAP
00C0
00C0
0180
0300
0300
0600
0C00
0C00
1800
3000
3000
6000
C000
C000
ENDCHAR
STARTCHAR currency
ENCODING 219
SWIDTH 744 0
DWIDTH 13 0
BBX 12 12 0 1
BITMAP
07C0
0820
1010
1000
FFE0
2000
FFC0
2000
1000
1010
0820
07C0
ENDCHAR
STARTCHAR guilsinglleft
ENCODING 220
SWIDTH 322 0
DWIDTH 10 0
BBX 6 9 2 1
BITMAP
0C
18
30
60
C0
60
30
18
0C
ENDCHAR
STARTCHAR guilsinglright
ENCODING 221
SWIDTH 322 0
DWIDTH 10 0
BBX 6 9 3 1
BITMAP
C0
60
30
18
0C
18
30
60
C0
ENDCHAR
STARTCHAR fi
ENCODING 222
SWIDTH 599 0
DWIDTH 9 0
BBX 7 13 1 0
BITMAP
3C
7C
60
FE
FE
66
66
66
66
66
66
66
66
ENDCHAR
STARTCHAR fl
ENCODING 223
SWIDTH 599 0
DWIDTH 9 0
BBX 7 13 1 0
BITMAP
3E
7E
66
F6
F6
66
66
66
66
66
66
66
66
ENDCHAR
STARTCHAR daggerdbl
ENCODING 224
SWIDTH 667 0
DWIDTH 8 0
BBX 6 11 1 2
BITMAP
30
30
FC
FC
30
30
FC
FC
30
30
30
ENDCHAR
STARTCHAR periodcentered
ENCODING 225
SWIDTH 667 0
DWIDTH 6 0
BBX 2 2 2 6
BITMAP
C0
C0
ENDCHAR
STARTCHAR quotesinglbase
ENCODING 226
SWIDTH 303 0
DWIDTH 8 0
BBX 2 4 3 -2
BITMAP
C0
C0
40
80
ENDCHAR
STARTCHAR quotedblbase
ENCODING 227
SWIDTH 492 0
DWIDTH 14 0
BBX 6 4 4 -2
BITMAP
CC
CC
44
88
ENDCHAR
STARTCHAR perthousand
ENCODING 228
SWIDTH 1311 0
DWIDTH 16 0
BBX 14 13 1 0
BITMAP
70C0
D8C0
D980
DB00
7300
0600
0C00
1800
33B8
36EC
66EC
C6EC
C3B8
ENDCHAR
STARTCHAR Acircumflex
ENCODING 229
SWIDTH 727 0
DWIDTH 14 0
BBX 12 17 1 0
BITMAP
0600
0F00
1980
0000
0600
0600
0F00
0F00
1980
1980
30C0
30C0
7FE0
7FE0
6060
C030
C030
ENDCHAR
STARTCHAR Ecircumflex
ENCODING 230
SWIDTH 576 0
DWIDTH 10 0
BBX 8 17 1 0
BITMAP
18
3C
66
00
FF
FF
C0
C0
C0
FE
FE
C0
C0
C0
C0
FF
FF
ENDCHAR
STARTCHAR Aacute
ENCODING 231
SWIDTH 727 0
DWIDTH 14 0
BBX 12 17 1 0
BITMAP
0300
0600
0C00
0000
0600
0600
0F00
0F00
1980
1980
30C0
30C0
7FE0
7FE0
6060
C030
C030
ENDCHAR
STARTCHAR Edieresis
ENCODING 232
SWIDTH 576 0
DWIDTH 10 0
BBX 8 16 1 0
BITMAP
66
66
00
FF
FF
C0
C0
C0
FE
FE
C0
C0
C0
C0
FF
FF
ENDCHAR
STARTCHAR Egrave
ENCODING 233
SWIDTH 576 0
DWIDTH 10 0
BBX 8 17 1 0
BITMAP
30
18
0C
00
FF
FF
C0
C0
C0
FE
FE
C0
C0
C0
C0
FF
FF
ENDCHAR
STARTCHAR Iacute
ENCODING 234
SWIDTH 242 0
DWIDTH 6 0
BBX 4 17 1 0
BITMAP
30
60
C0
00
60
60
60
60
60
60
60
60
60
60
60
60
60
ENDCHAR
STARTCHAR Icircumflex
ENCODING 235
SWIDTH 242 0
DWIDTH 6 0
BBX 6 17 0 0
BITMAP
30
78
CC
00
30
30
30
30
30
30
30
30
30
30
30
30
30
ENDCHAR
STARTCHAR Idieresis
ENCODING 236
SWIDTH 242 0
DWIDTH 6 0
BBX 6 16 0 0
BITMAP
CC
CC
00
30
30
30
30
30
30
30
30
30
30
30
30
30
ENDCHAR
STARTCHAR Igrave
ENCODING 237
SWIDTH 242 0
DWIDTH 6 0
BBX 4 17 1 0
BITMAP
C0
60
30
00
60
60
60
60
60
60
60
60
60
60
60
60
60
ENDCHAR
STARTCHAR Oacute
ENCODING 238
SWIDTH 735 0
DWIDTH 12 0
BBX 10 17 1 0
BITMAP
0600
0C00
1800
0000
1E00
3F00
6180
6180
C0C0
C0C0
C0C0
C0C0
C0C0
6180
6180
3F00
1E00
ENDCHAR
STARTCHAR Ocircumflex
ENCODING 239
SWIDTH 735 0
DWIDTH 12 0
BBX 10 17 1 0
BITMAP
0C00
1E00
3300
0000
1E00
3F00
6180
6180
C0C0
C0C0
C0C0
C0C0
C0C0
6180
6180
3F00
1E00
ENDCHAR
STARTCHAR apple
ENCODING 240
SWIDTH 790 0
DWIDTH 15 0
BBX 13 15 1 0
BITMAP
01C0
0380
0300
3AF0
7FF8
FFF8
FFE0
FFC0
FFC0
FFC0
FFE0
FFF8
7FF8
3FF0
1CE0
ENDCHAR
STARTCHAR Ograve
ENCODING 241
SWIDTH 735 0
DWIDTH 12 0
BBX 10 17 1 0
BITMAP
1800
0C00
0600
0000
1E00
3F00
6180
6180
C0C0
C0C0
C0C0
C0C0
C0C0
6180
6180
3F00
1E00
ENDCHAR
STARTCHAR Uacute
ENCODING 242
SWIDTH 667 0
DWIDTH 12 0
BBX 10 17 1 0
BITMAP
0600
0C00
1800
0000
C0C0
C0C0
C0C0
C0C0
C0C0
C0C0
C0C0
C0C0
C0C0
C0C0
E1C0
7F80
3F00
ENDCHAR
STARTCHAR Ucircumflex
ENCODING 243
SWIDTH 667 0
DWIDTH 12 0
BBX 10 17 1 0
BITMAP
0C00
1E00
3300
0000
C0C0
C0C0
C0C0
C0C0
C0C0
C0C0
C0C0
C0C0
C0C0
C0C0
E1C0
7F80
3F00
ENDCHAR
STARTCHAR Ugrave
ENCODING 244
SWIDTH 667 0
DWIDTH 12 0
BBX 10 17 1 0
BITMAP
1800
0C00
0600
0000
C0C0
C0C0
C0C0
C0C0
C0C0
C0C0
C0C0
C0C0
C0C0
C0C0
E1C0
7F80
3F00
ENDCHAR
STARTCHAR dotlessi
ENCODING 245
SWIDTH 235 0
DWIDTH 6 0
BBX 2 10 2 0
BITMAP
C0
C0
C0
C0
C0
C0
C0
C0
C0
C0
ENDCHAR
STARTCHAR circumflex
ENCODING 246
SWIDTH 591 0
DWIDTH 10 0
BBX 5 3 2 11
BITMAP
20
70
D8
ENDCHAR
STARTCHAR tilde
ENCODING 247
SWIDTH 591 0
DWIDTH 10 0
BBX 7 2 1 11
BITMAP
76
DC
ENDCHAR
STARTCHAR macron
ENCODING 248
SWIDTH 591 0
DWIDTH 10 0
BBX 6 1 2 11
BITMAP
FC
ENDCHAR
STARTCHAR breve
ENCODING 249
SWIDTH 591 0
DWIDTH 10 0
BBX 6 2 2 11
BITMAP
CC
78
ENDCHAR
STARTCHAR dotaccent
ENCODING 250
SWIDTH 591 0
DWIDTH 10 0
BBX 2 2 4 11
BITMAP
C0
C0
ENDCHAR
STARTCHAR ring
ENCODING 251
SWIDTH 591 0
DWIDTH 10 0
BBX 3 3 3 11
BITMAP
40
A0
40
ENDCHAR
STARTCHAR cedilla
ENCODING 252
SWIDTH 591 0
DWIDTH 10 0
BBX 4 4 3 -4
BITMAP
40
E0
30
E0
ENDCHAR
STARTCHAR hungarumlaut
ENCODING 253
SWIDTH 591 0
DWIDTH 10 0
BBX 7 3 2 11
BITMAP
36
6C
D8
ENDCHAR
STARTCHAR ogonek
ENCODING 254
SWIDTH 591 0
DWIDTH 10 0
BBX 3 4 3 -4
BITMAP
60
C0
C0
60
ENDCHAR
STARTCHAR caron
ENCODING 255
SWIDTH 591 0
DWIDTH 10 0
BBX 5 3 2 11
BITMAP
D8
70
20
ENDCHAR
ENDFONT
